<?xml version="1.0" standalone="no"?><svg xmlns="http://www.w3.org/2000/svg" viewBox="0 0 1440 320"><path fill="#ed7014" fill-opacity="0.9" d="M0,64L26.7,96C53.3,128,107,192,160,218.7C213.3,245,267,235,320,208C373.3,181,427,139,480,128C533.3,117,587,139,640,170.7C693.3,203,747,245,800,229.3C853.3,213,907,139,960,128C1013.3,117,1067,171,1120,192C1173.3,213,1227,203,1280,208C1333.3,213,1387,235,1413,245.3L1440,256L1440,0L1413.3,0C1386.7,0,1333,0,1280,0C1226.7,0,1173,0,1120,0C1066.7,0,1013,0,960,0C906.7,0,853,0,800,0C746.7,0,693,0,640,0C586.7,0,533,0,480,0C426.7,0,373,0,320,0C266.7,0,213,0,160,0C106.7,0,53,0,27,0L0,0Z"></path></svg>